<svg width="72" height="72" viewBox="0 0 72 72" fill="none" xmlns="http://www.w3.org/2000/svg">
<g clip-path="url(#clip0_105_2)">
<path d="M72 0H0V72H72V0Z" fill="#1976D2"/>
<path d="M42.98 32H16.454V38.528H25.968V68H33.506V38.528H42.98V32Z" fill="white"/>
<path d="M66.3879 40.168C66.3879 40.168 62.8139 37.784 58.7739 37.784C54.7339 37.784 53.2799 39.704 53.2799 41.756C53.2799 47.052 68.0419 46.522 68.0419 57.18C68.0419 73.598 45.5339 66.316 45.5339 66.316V58.44C45.5339 58.44 49.8379 61.684 54.9999 61.684C60.1619 61.684 59.9659 58.308 59.9659 57.844C59.9659 52.946 45.3359 52.946 45.3359 42.088C45.3359 27.326 66.6519 33.15 66.6519 33.15L66.3879 40.168Z" fill="white"/>
</g>
<defs>
<clipPath id="clip0_105_2">
<rect width="72" height="72" rx="2" fill="white"/>
</clipPath>
</defs>
</svg>
